<?xml version="1.0" encoding="UTF-8" standalone="no"?>
<svg
   xmlns:dc="http://purl.org/dc/elements/1.1/"
   xmlns:cc="http://creativecommons.org/ns#"
   xmlns:rdf="http://www.w3.org/1999/02/22-rdf-syntax-ns#"
   xmlns:svg="http://www.w3.org/2000/svg"
   xmlns="http://www.w3.org/2000/svg"
   xmlns:sodipodi="http://sodipodi.sourceforge.net/DTD/sodipodi-0.dtd"
   xmlns:inkscape="http://www.inkscape.org/namespaces/inkscape"
   width="512.0px"
   height="512.0px"
   viewBox="0 0 512.0 512.0"
   version="1.1"
   id="SVGRoot"
   sodipodi:docname="ic_tnpr.svg"
   inkscape:version="1.0.2 (e86c870879, 2021-01-15, custom)">
  <defs
     id="defs18" />
  <sodipodi:namedview
     id="base"
     pagecolor="#ffffff"
     bordercolor="#666666"
     borderopacity="1.0"
     inkscape:pageopacity="0.0"
     inkscape:pageshadow="2"
     inkscape:zoom="1.4142136"
     inkscape:cx="319.12847"
     inkscape:cy="264.41818"
     inkscape:document-units="px"
     inkscape:current-layer="layer2"
     inkscape:document-rotation="0"
     showgrid="true"
     inkscape:window-width="1920"
     inkscape:window-height="1046"
     inkscape:window-x="-11"
     inkscape:window-y="-11"
     inkscape:window-maximized="1">
    <inkscape:grid
       type="xygrid"
       id="grid27"
       empspacing="8" />
  </sodipodi:namedview>
  <metadata
     id="metadata21">
    <rdf:RDF>
      <cc:Work
         rdf:about="">
        <dc:format>image/svg+xml</dc:format>
        <dc:type
           rdf:resource="http://purl.org/dc/dcmitype/StillImage" />
        <dc:title />
      </cc:Work>
    </rdf:RDF>
  </metadata>
  <g
     inkscape:label="Background"
     inkscape:groupmode="layer"
     id="layer1" />
  <g
     inkscape:groupmode="layer"
     id="layer4"
     inkscape:label="Wood">
    <path
       id="rect1859"
       style="fill:#784421"
       d="m 72,80 c 120,0 240,0 360,0 0,21.33333 0,42.66667 0,64 -120,0 -240,0 -360,0 0,-21.33333 0,-42.66667 0,-64 z" />
    <path
       id="rect1859-6"
       style="fill:#784421"
       d="m 80,224 c 120,0 240,0 360,0 0,21.33333 0,42.66667 0,64 -120,0 -240,0 -360,0 0,-21.33333 0,-42.66667 0,-64 z" />
    <path
       id="rect1859-6-0"
       style="fill:#784421"
       d="m 80,360 c 120,0 240,0 360,0 0,21.33333 0,42.66667 0,64 -120,0 -240,0 -360,0 0,-21.33333 0,-42.66667 0,-64 z" />
  </g>
  <g
     inkscape:groupmode="layer"
     id="layer3"
     inkscape:label="Track"
     style="display:inline">
    <g
       id="g374"
       transform="matrix(0.78541538,0,0,0.78541538,54.933663,54.934055)">
      <g
         id="g317">
        <g
           id="g315">
          <path
             id="path313"
             d="m 483.407,136.736 c 16.44411,-0.236 15.3861,-18.61006 14.857,-30.36521 -0.19951,-23.278332 0.40028,-46.596851 -0.30185,-69.849909 C 493.49895,19.632569 473.68456,25.81801 460.8496,24.658 c -19.5052,0 -39.0104,0 -58.5156,0 4.47352,-14.9655316 -11.21157,-33.4357422 -25.36138,-20.306375 -7.9586,8.237226 1.22995,25.562053 -15.63032,20.306375 -73.98777,0 -147.97553,0 -221.9633,0 C 143.85241,9.6923387 128.16605,-8.7776068 114.01663,4.351625 106.05802,12.588851 115.24657,29.913678 98.3863,24.658 74.128771,24.856937 49.83115,24.258513 25.598881,24.959854 8.710569,29.423046 14.89601,49.237442 13.736,62.072399 c 0.705739,21.822339 -1.458025,44.008391 1.167578,65.589491 7.606044,14.41386 25.957347,7.40393 39.066496,9.07411 18.565309,0 37.130617,0 55.695926,0 0,21.07467 0,42.14933 0,63.224 -28.017395,0.19963 -56.074996,-0.40038 -84.067119,0.30185 -16.888312,4.4632 -10.702871,24.27759 -11.862881,37.11255 0.705707,21.82268 -1.457979,44.00906 1.167578,65.59049 7.606044,14.41386 25.957347,7.40393 39.066496,9.07411 18.565309,0 37.130617,0 55.695926,0 0,21.07467 0,42.14933 0,63.224 -28.017395,0.19963 -56.074996,-0.40038 -84.067119,0.30185 -16.888312,4.4632 -10.702871,24.27759 -11.862881,37.11255 0.705739,21.82234 -1.458025,44.00839 1.167578,65.58949 7.606044,14.41386 25.957347,7.40393 39.066496,9.07411 18.565309,0 37.130617,0 55.695926,0 -4.47341,14.96566 11.21295,33.43561 25.36238,20.30638 7.9586,-8.23723 -1.22995,-25.56206 15.63032,-20.30638 73.9871,0 147.9742,0 221.9613,0 -4.47341,14.96566 11.21295,33.43561 25.36237,20.30638 7.95861,-8.23723 -1.22994,-25.56206 15.63033,-20.30638 24.25786,-0.19893 48.55582,0.39948 72.78842,-0.30185 16.88831,-4.4632 10.70287,-24.27759 11.86288,-37.11255 -0.70574,-21.82234 1.45803,-44.00839 -1.16758,-65.58949 -7.60604,-14.41386 -25.95734,-7.40393 -39.06649,-9.07411 -18.56531,0 -37.13062,0 -55.69593,0 0,-21.07433 0,-42.14867 0,-63.223 28.01739,-0.19963 56.075,0.40038 84.06712,-0.30185 16.88831,-4.4632 10.70287,-24.27759 11.86288,-37.11255 -0.70571,-21.82268 1.45798,-44.00906 -1.16758,-65.59049 -7.60604,-14.41386 -25.95734,-7.40393 -39.06649,-9.07411 -18.56531,0 -37.13062,0 -55.69593,0 0,-21.07467 0,-42.14933 0,-63.224 27.024,-6.7e-4 54.05067,0.001 81.073,-0.001 z M 402.335,54.372 c 22.072,0 44.144,0 66.216,0 0,17.55 0,35.1 0,52.65 -22.072,0 -44.144,0 -66.216,0 0,-17.55 0,-35.1 0,-52.65 z m -292.67,403.256 c -22.071667,0 -44.143333,0 -66.215,0 0,-17.55 0,-35.1 0,-52.65 22.072,0 44.144,0 66.216,0 -6.7e-4,17.54967 0.001,35.102 -10e-4,52.65 z m 0,-175.302 c -22.071667,0 -44.143333,0 -66.215,0 0,-17.55033 0,-35.10067 0,-52.651 22.072,0 44.144,0 66.216,0 -6.7e-4,17.55 0.001,35.10267 -10e-4,52.651 z m 0,-175.304 c -22.071667,0 -44.143333,0 -66.215,0 0,-17.55 0,-35.1 0,-52.65 22.072,0 44.144,0 66.216,0 -6.7e-4,17.549665 0.001,35.102002 -10e-4,52.65 z m 29.714,29.714 c 77.747,0 155.494,0 233.241,0 0,21.07467 0,42.14933 0,63.224 -77.747,0 -155.494,0 -233.241,0 0,-21.07467 0,-42.14933 0,-63.224 z m 0,92.938 c 77.747,0 155.494,0 233.241,0 0,17.55033 0,35.10067 0,52.651 -77.747,0 -155.494,0 -233.241,0 0,-17.55033 0,-35.10067 0,-52.651 z M 372.62,457.628 c -77.747,0 -155.494,0 -233.241,0 0,-17.55 0,-35.1 0,-52.65 77.747,0 155.494,0 233.241,0 0,17.55 0,35.1 0,52.65 z M 139.379,375.264 c 0,-21.07467 0,-42.14933 0,-63.224 77.747,0 155.494,0 233.241,0 0,21.07467 0,42.14933 0,63.224 -77.747,0 -155.494,0 -233.241,0 z M 372.621,107.022 c -77.74733,0 -155.49467,0 -233.242,0 0,-17.55 0,-35.1 0,-52.65 77.747,0 155.494,0 233.241,0 6.7e-4,17.549665 -0.001,35.102002 10e-4,52.65 z m 95.929,297.956 c 0,17.55 0,35.1 0,52.65 -22.072,0 -44.144,0 -66.216,0 0,-17.55 0,-35.1 0,-52.65 22.072,0 44.144,0 66.216,0 z m 0,-175.304 c 0,17.55033 0,35.10067 0,52.651 -22.072,0 -44.144,0 -66.216,0 0,-17.55033 0,-35.10067 0,-52.651 22.072,0 44.144,0 66.216,0 z" />
        </g>
      </g>
      <g
         id="g319" />
      <g
         id="g321" />
      <g
         id="g323" />
      <g
         id="g325" />
      <g
         id="g327" />
      <g
         id="g329" />
      <g
         id="g331" />
      <g
         id="g333" />
      <g
         id="g335" />
      <g
         id="g337" />
      <g
         id="g339" />
      <g
         id="g341" />
      <g
         id="g343" />
      <g
         id="g345" />
      <g
         id="g347" />
    </g>
  </g>
  <g
     inkscape:groupmode="layer"
     id="layer2"
     inkscape:label="Leaf">
    <g
       id="g1848"
       transform="matrix(0.37628055,0,0,0.37628055,263.1454,184.54284)">
      <path
         id="path1810"
         style="fill:#4caf50"
         d="M 468.523,6.592 C 447.63914,-8.5162278 415.00031,4.3539034 389.65315,1.7128593 291.41434,7.5355109 189.55041,21.915861 103.86607,73.658693 46.064328,108.01566 1.6753086,169.30276 0.14214581,238.13878 -3.7977392,296.27345 27.372163,355.52941 79.920243,381.94714 129.44381,407.08728 190.10729,413.43217 242.85043,394.74929 302.57298,372.70339 334.84128,311.60447 350.58399,253.49505 362.60973,208.02229 369.88425,160.67199 392.33,118.66879 411.07877,80.049621 437.82164,45.836153 468.07947,15.657953 469.56697,12.901569 469.73596,9.4811666 468.523,6.592 Z" />
      <path
         id="path1812"
         style="fill:#388e3c"
         d="M 10.667,469.333 C -13.134738,457.06482 9.7333289,422.03123 14.242537,402.2689 53.666689,309.09172 117.93835,226.77244 196.30008,163.08777 c 28.24952,-21.80626 58.04972,-42.89631 91.15664,-56.40849 29.07239,11.27836 -9.6024,29.14592 -22.81984,35.13746 C 165.90084,200.16313 88.493199,291.73731 40.225475,395.20334 28.731779,417.46559 23.984738,442.73584 18.2085,466.208 l -3.390781,2.28644 z" />
      <path
         id="path1814"
         d="m 436.67969,-18.044922 c -47.10724,0.276449 -94.18081,3.830147 -140.83794,10.2911532 -46.01682,6.87974274 -91.84489,16.6966684 -135.41073,33.3111948 -33.5021,12.789102 -65.5956,29.796352 -93.749459,52.122833 -11.19755,8.901085 -21.881934,18.496866 -31.503827,29.095131 -30.198258,33.58798 -48.988975,77.19279 -52.841987,122.18188 -2.270437,26.89111 0.935119,54.35283 10.279412,79.71977 7.55307488,20.66359 19.119477,39.94479 34.382421,55.83852 19.382648,20.39055 43.977354,35.42203 70.297189,45.09596 25.876121,9.54613 53.501441,14.12224 81.058351,14.06684 11.38728,0.0272 22.79669,-0.5422 34.06298,-2.26137 21.47267,-3.19975 42.50887,-10.09879 61.20773,-21.21999 19.47702,-11.51915 36.33492,-27.23438 49.84811,-45.34056 17.8785,-23.79916 30.30629,-51.23603 39.58939,-79.39463 5.07348,-15.40563 9.26143,-31.09717 12.78225,-46.92674 1.9896,-10.93699 4.40195,-21.79716 7.24236,-32.54484 0.18719,-0.68529 0.44878,-1.67447 0.66453,-2.4764 1.79663,-6.62989 3.7649,-13.21304 5.90383,-19.74039 0.17429,-0.53378 0.46234,-1.3923 0.68025,-2.05059 0.44583,-1.3352 0.92732,-2.75358 1.35135,-3.96906 0.253,-0.72728 0.58213,-1.66456 0.78722,-2.26006 0.38984,-1.08379 0.78753,-2.21777 1.14885,-3.19595 1.91297,-5.26381 3.94271,-10.48521 6.08701,-15.65911 0.22093,-0.51628 0.56788,-1.35269 0.83713,-1.99172 12.76685,-30.28843 29.75374,-58.885495 51.02397,-83.986764 0.71789,-0.943863 1.66183,-1.74505 2.22428,-2.786961 1.34046,-3.384915 4.32894,-5.657066 6.83614,-8.145723 7.05313,-6.498764 14.64503,-12.64244 20.02575,-20.690393 4.38302,-6.5063 6.79986,-14.600456 5.51701,-22.4404769 -1.23438,-8.0003759 -6.12681,-15.078367 -12.41545,-20.0126481 -1.7766,-1.431095 -3.55206,-2.86362 -5.33008,-4.292968 -10.58127,-0.218719 -21.16421,-0.373647 -31.74804,-0.335938 z m -45.32422,61.78125 c -14.91231,20.491653 -27.83324,42.421575 -38.61989,65.352112 -11.6627,23.17425 -19.19462,48.14348 -25.52461,73.22276 -6.08252,23.98695 -11.15407,48.25382 -18.5723,71.88411 -3.63337,11.81444 -7.89908,23.59182 -13.26161,34.79436 -3.59586,7.57524 -7.62924,14.94878 -12.19151,21.98689 -0.21486,0.31842 -0.63369,0.97336 -0.93269,1.41897 -7.59723,11.44954 -16.67163,22.01637 -27.46966,30.56541 -0.25718,0.19257 -0.93963,0.74034 -1.3668,1.06104 -10.59933,8.16503 -22.91121,14.1567 -35.9804,17.10311 -12.82922,2.96875 -25.98223,4.54517 -39.15269,4.59525 -22.85116,0.10276 -45.803,-4.16664 -66.84561,-13.15696 C 98.805623,347.12751 86.788672,340.09696 76.295508,331.17341 61.115497,317.96856 50.492916,300.00508 44.779624,280.812 c -1.569849,-5.24779 -2.801683,-10.59585 -3.685874,-16.00145 -0.04822,-0.28803 -0.186638,-1.1857 -0.269504,-1.70789 -2.128916,-14.20797 -1.904315,-28.75934 0.633988,-42.89902 1.048457,-6.80235 2.350741,-13.58031 4.378521,-20.16587 2.162334,-7.20699 4.988298,-14.21064 8.350745,-20.94011 0.199461,-0.38018 0.552188,-1.09512 0.817123,-1.6031 10.295892,-19.91776 25.264617,-37.16171 42.419455,-51.4826 10.354402,-8.61989 21.536422,-16.23818 33.300532,-22.80102 0.34016,-0.1928 1.0511,-0.58045 1.53319,-0.84784 10.62025,-5.8346 21.70056,-10.776587 32.85296,-15.493824 36.52681,-15.246773 74.95203,-25.599221 113.8646,-32.601565 17.49335,-3.147529 35.10285,-5.626424 52.76487,-7.609508 1.18896,-0.132933 2.63153,-0.288178 3.91797,-0.429687 1.64167,-0.168042 3.50356,-0.368408 5.23037,-0.545058 3.35956,-0.339379 6.86755,-0.679102 10.13877,-0.980333 8.5735,-0.778915 17.1556,-1.459257 25.74414,-2.048828 2.00893,-0.134823 4.21845,-0.282105 6.3059,-0.415866 3.26836,-0.19733 6.53546,-0.416457 9.80543,-0.586087 -0.50911,0.694661 -1.01823,1.389323 -1.52734,2.083984 z" />
      <path
         id="path1816"
         d="m 284.09375,88.246094 c -14.86379,5.938159 -29.21099,13.137786 -42.95233,21.339096 -19.78798,11.8065 -38.46343,25.37432 -56.62514,39.52703 -14.04975,11.36375 -27.57694,23.36829 -40.64458,35.84685 C 97.373558,229.45592 57.218308,280.6809 25.858314,336.91331 15.08889,356.27542 5.3058231,376.19923 -3.2331287,396.64392 c -1.9729089,8.42683 -5.7126501,16.27956 -8.5318843,24.43013 -3.528185,9.65767 -6.496208,19.73688 -6.527956,30.1029 -0.0071,8.9486 2.704533,18.10874 8.5910989,24.97376 4.0547864,4.79697 9.31924214,8.57314 15.1503767,10.89812 3.381561,1.19225 7.0579024,0.75896 10.4617604,-0.0957 3.154485,-0.63115 6.51652,-1.16467 9.09704,-3.2434 3.10488,-2.09349 6.212202,-4.18685 9.316912,-6.28204 3.210878,-12.85307 6.040576,-25.79938 9.411576,-38.61264 1.413382,-5.33234 2.943029,-10.63619 4.713424,-15.86197 0.121374,-0.36236 0.390433,-1.13548 0.568345,-1.65509 2.348322,-6.83475 5.264321,-13.46117 8.536496,-19.90125 6.086253,-12.93965 12.631299,-25.66308 19.611956,-38.14287 0.530597,-0.93191 1.178513,-2.09799 1.761225,-3.11801 5.499054,-9.6884 11.271153,-19.22187 17.301275,-28.58902 0.825543,-1.2787 1.776927,-2.7501 2.662533,-4.09528 1.636761,-2.4972 3.311961,-5.01653 4.948671,-7.42172 3.74241,-5.52988 7.66267,-11.10226 11.54505,-16.43027 4.23989,-5.82005 8.59209,-11.55803 13.04492,-17.2168 0.62065,-0.78727 1.46147,-1.85591 2.08201,-2.62873 1.34015,-1.67681 2.58039,-3.22569 3.9468,-4.8995 5.1607,-6.32694 10.56256,-12.68219 16.05033,-18.83884 1.3326,-1.49664 2.5613,-2.86594 3.92097,-4.36264 1.42048,-1.56019 2.72878,-2.98217 4.17152,-4.53563 11.50001,-12.37731 23.57399,-24.22147 36.17602,-35.47489 0.39028,-0.35124 1.04775,-0.92923 1.54044,-1.36738 12.73262,-11.28024 26.01415,-21.94072 39.80331,-31.90215 1.33691,-0.96483 2.85675,-2.05359 4.27286,-3.05278 4.18654,-2.95645 8.41557,-5.85271 12.68808,-8.68355 0.69597,-0.46108 1.64311,-1.0799 2.43555,-1.60156 3.26416,-2.13349 6.71834,-4.32097 9.93164,-6.3125 2.86347,-1.71423 5.65818,-3.55723 8.61854,-5.1007 9.67585,-4.49698 19.34159,-9.27898 27.76615,-15.90624 5.83916,-4.4941 10.96639,-10.32638 13.2803,-17.43072 2.76786,-8.22344 0.73062,-17.81908 -5.09614,-24.24027 -4.65799,-5.397655 -11.17924,-8.756026 -17.79528,-11.130802 -2.28532,-0.724911 -4.70599,-1.115963 -7.09062,-1.096476 -0.34614,0.142881 -0.69228,0.285761 -1.03842,0.428642 z" />
      <g
         id="g1818" />
      <g
         id="g1820" />
      <g
         id="g1822" />
      <g
         id="g1824" />
      <g
         id="g1826" />
      <g
         id="g1828" />
      <g
         id="g1830" />
      <g
         id="g1832" />
      <g
         id="g1834" />
      <g
         id="g1836" />
      <g
         id="g1838" />
      <g
         id="g1840" />
      <g
         id="g1842" />
      <g
         id="g1844" />
      <g
         id="g1846" />
    </g>
  </g>
</svg>
