<?xml version="1.0" encoding="UTF-8" standalone="no"?>
<svg
   xmlns:dc="http://purl.org/dc/elements/1.1/"
   xmlns:cc="http://creativecommons.org/ns#"
   xmlns:rdf="http://www.w3.org/1999/02/22-rdf-syntax-ns#"
   xmlns:svg="http://www.w3.org/2000/svg"
   xmlns="http://www.w3.org/2000/svg"
   xmlns:sodipodi="http://sodipodi.sourceforge.net/DTD/sodipodi-0.dtd"
   xmlns:inkscape="http://www.inkscape.org/namespaces/inkscape"
   width="512.0px"
   height="512.0px"
   viewBox="0 0 512.0 512.0"
   version="1.1"
   id="SVGRoot"
   sodipodi:docname="ic_tnpr.svg"
   inkscape:version="1.0.2 (e86c870879, 2021-01-15, custom)">
  <defs
     id="defs18" />
  <sodipodi:namedview
     id="base"
     pagecolor="#ffffff"
     bordercolor="#666666"
     borderopacity="1.0"
     inkscape:pageopacity="0.0"
     inkscape:pageshadow="2"
     inkscape:zoom="1.4142136"
     inkscape:cx="319.12847"
     inkscape:cy="264.41818"
     inkscape:document-units="px"
     inkscape:current-layer="g1848"
     inkscape:document-rotation="0"
     showgrid="true"
     inkscape:window-width="1920"
     inkscape:window-height="1046"
     inkscape:window-x="-11"
     inkscape:window-y="-11"
     inkscape:window-maximized="1">
    <inkscape:grid
       type="xygrid"
       id="grid27"
       empspacing="8" />
  </sodipodi:namedview>
  <metadata
     id="metadata21">
    <rdf:RDF>
      <cc:Work
         rdf:about="">
        <dc:format>image/svg+xml</dc:format>
        <dc:type
           rdf:resource="http://purl.org/dc/dcmitype/StillImage" />
        <dc:title />
      </cc:Work>
    </rdf:RDF>
  </metadata>
  <g
     inkscape:label="Background"
     inkscape:groupmode="layer"
     id="layer1" />
  <g
     inkscape:groupmode="layer"
     id="layer4"
     inkscape:label="Wood"
     style="display:inline">
    <path
       id="rect1859"
       style="fill:#795548;fill-opacity:1"
       d="m 72,80 c 120,0 240,0 360,0 0,21.33333 0,42.66667 0,64 -120,0 -240,0 -360,0 0,-21.33333 0,-42.66667 0,-64 z" />
    <path
       id="rect1859-6"
       style="fill:#795548;fill-opacity:1"
       d="m 80,224 c 120,0 240,0 360,0 0,21.33333 0,42.66667 0,64 -120,0 -240,0 -360,0 0,-21.33333 0,-42.66667 0,-64 z" />
    <path
       id="rect1859-6-0"
       style="fill:#795548;fill-opacity:1"
       d="m 80,360 c 120,0 240,0 360,0 0,21.33333 0,42.66667 0,64 -120,0 -240,0 -360,0 0,-21.33333 0,-42.66667 0,-64 z" />
  </g>
  <g
     inkscape:groupmode="layer"
     id="layer3"
     inkscape:label="Track"
     style="display:inline">
    <g
       id="g374"
       transform="matrix(0.78541538,0,0,0.78541538,54.933663,54.934055)">
      <g
         id="g317">
        <g
           id="g315">
          <path
             id="path313"
             d="m 483.407,136.736 c 16.44411,-0.236 15.3861,-18.61006 14.857,-30.36521 -0.19951,-23.278332 0.40028,-46.596851 -0.30185,-69.849909 C 493.49895,19.632569 473.68456,25.81801 460.8496,24.658 c -19.5052,0 -39.0104,0 -58.5156,0 4.47352,-14.9655316 -11.21157,-33.4357422 -25.36138,-20.306375 -7.9586,8.237226 1.22995,25.562053 -15.63032,20.306375 -73.98777,0 -147.97553,0 -221.9633,0 C 143.85241,9.6923387 128.16605,-8.7776068 114.01663,4.351625 106.05802,12.588851 115.24657,29.913678 98.3863,24.658 74.128771,24.856937 49.83115,24.258513 25.598881,24.959854 8.710569,29.423046 14.89601,49.237442 13.736,62.072399 c 0.705739,21.822339 -1.458025,44.008391 1.167578,65.589491 7.606044,14.41386 25.957347,7.40393 39.066496,9.07411 18.565309,0 37.130617,0 55.695926,0 0,21.07467 0,42.14933 0,63.224 -28.017395,0.19963 -56.074996,-0.40038 -84.067119,0.30185 -16.888312,4.4632 -10.702871,24.27759 -11.862881,37.11255 0.705707,21.82268 -1.457979,44.00906 1.167578,65.59049 7.606044,14.41386 25.957347,7.40393 39.066496,9.07411 18.565309,0 37.130617,0 55.695926,0 0,21.07467 0,42.14933 0,63.224 -28.017395,0.19963 -56.074996,-0.40038 -84.067119,0.30185 -16.888312,4.4632 -10.702871,24.27759 -11.862881,37.11255 0.705739,21.82234 -1.458025,44.00839 1.167578,65.58949 7.606044,14.41386 25.957347,7.40393 39.066496,9.07411 18.565309,0 37.130617,0 55.695926,0 -4.47341,14.96566 11.21295,33.43561 25.36238,20.30638 7.9586,-8.23723 -1.22995,-25.56206 15.63032,-20.30638 73.9871,0 147.9742,0 221.9613,0 -4.47341,14.96566 11.21295,33.43561 25.36237,20.30638 7.95861,-8.23723 -1.22994,-25.56206 15.63033,-20.30638 24.25786,-0.19893 48.55582,0.39948 72.78842,-0.30185 16.88831,-4.4632 10.70287,-24.27759 11.86288,-37.11255 -0.70574,-21.82234 1.45803,-44.00839 -1.16758,-65.58949 -7.60604,-14.41386 -25.95734,-7.40393 -39.06649,-9.07411 -18.56531,0 -37.13062,0 -55.69593,0 0,-21.07433 0,-42.14867 0,-63.223 28.01739,-0.19963 56.075,0.40038 84.06712,-0.30185 16.88831,-4.4632 10.70287,-24.27759 11.86288,-37.11255 -0.70571,-21.82268 1.45798,-44.00906 -1.16758,-65.59049 -7.60604,-14.41386 -25.95734,-7.40393 -39.06649,-9.07411 -18.56531,0 -37.13062,0 -55.69593,0 0,-21.07467 0,-42.14933 0,-63.224 27.024,-6.7e-4 54.05067,0.001 81.073,-0.001 z M 402.335,54.372 c 22.072,0 44.144,0 66.216,0 0,17.55 0,35.1 0,52.65 -22.072,0 -44.144,0 -66.216,0 0,-17.55 0,-35.1 0,-52.65 z m -292.67,403.256 c -22.071667,0 -44.143333,0 -66.215,0 0,-17.55 0,-35.1 0,-52.65 22.072,0 44.144,0 66.216,0 -6.7e-4,17.54967 0.001,35.102 -10e-4,52.65 z m 0,-175.302 c -22.071667,0 -44.143333,0 -66.215,0 0,-17.55033 0,-35.10067 0,-52.651 22.072,0 44.144,0 66.216,0 -6.7e-4,17.55 0.001,35.10267 -10e-4,52.651 z m 0,-175.304 c -22.071667,0 -44.143333,0 -66.215,0 0,-17.55 0,-35.1 0,-52.65 22.072,0 44.144,0 66.216,0 -6.7e-4,17.549665 0.001,35.102002 -10e-4,52.65 z m 29.714,29.714 c 77.747,0 155.494,0 233.241,0 0,21.07467 0,42.14933 0,63.224 -77.747,0 -155.494,0 -233.241,0 0,-21.07467 0,-42.14933 0,-63.224 z m 0,92.938 c 77.747,0 155.494,0 233.241,0 0,17.55033 0,35.10067 0,52.651 -77.747,0 -155.494,0 -233.241,0 0,-17.55033 0,-35.10067 0,-52.651 z M 372.62,457.628 c -77.747,0 -155.494,0 -233.241,0 0,-17.55 0,-35.1 0,-52.65 77.747,0 155.494,0 233.241,0 0,17.55 0,35.1 0,52.65 z M 139.379,375.264 c 0,-21.07467 0,-42.14933 0,-63.224 77.747,0 155.494,0 233.241,0 0,21.07467 0,42.14933 0,63.224 -77.747,0 -155.494,0 -233.241,0 z M 372.621,107.022 c -77.74733,0 -155.49467,0 -233.242,0 0,-17.55 0,-35.1 0,-52.65 77.747,0 155.494,0 233.241,0 6.7e-4,17.549665 -10e-4,35.102002 10e-4,52.65 z m 95.929,297.956 c 0,17.55 0,35.1 0,52.65 -22.072,0 -44.144,0 -66.216,0 0,-17.55 0,-35.1 0,-52.65 22.072,0 44.144,0 66.216,0 z m 0,-175.304 c 0,17.55033 0,35.10067 0,52.651 -22.072,0 -44.144,0 -66.216,0 0,-17.55033 0,-35.10067 0,-52.651 22.072,0 44.144,0 66.216,0 z" />
        </g>
      </g>
      <g
         id="g319" />
      <g
         id="g321" />
      <g
         id="g323" />
      <g
         id="g325" />
      <g
         id="g327" />
      <g
         id="g329" />
      <g
         id="g331" />
      <g
         id="g333" />
      <g
         id="g335" />
      <g
         id="g337" />
      <g
         id="g339" />
      <g
         id="g341" />
      <g
         id="g343" />
      <g
         id="g345" />
      <g
         id="g347" />
    </g>
  </g>
  <g
     inkscape:groupmode="layer"
     id="layer2"
     inkscape:label="Leaf"
     style="display:inline">
    <g
       id="g1848"
       transform="matrix(0.37628055,0,0,0.37628055,263.1454,184.54284)">
      <path
         id="path1810"
         style="fill:#43a047;fill-opacity:1"
         d="M 468.523,6.592 C 440.13329,-9.2681002 406.48124,5.2966345 375.81646,2.5910471 273.10661,9.6443804 165.27634,27.355023 80.358564,89.696803 25.403612,131.17589 -9.245756,201.41719 1.5384299,270.73394 9.3777023,328.34681 52.916585,378.19598 108.82652,394.06507 c 61.73763,20.68816 139.7413,16.06282 186.32438,-34.18688 43.27677,-44.86666 56.68857,-107.89341 70.15694,-166.53926 15.37428,-67.93919 53.2847,-129.228252 102.77163,-177.680977 l 1.23444,-4.483183 z" />
      <path
         id="path1812"
         style="fill:#388e3c"
         d="m 10.667,469.333 c -25.335967,-20.81597 3.197635,-55.50793 9.28224,-80.09477 50.128633,-108.7001 131.79813,-204.05483 234.46685,-266.21693 10.94677,-9.39575 50.752,-26.605329 40.10141,0.69819 -23.47927,17.76783 -51.90345,28.38762 -74.5712,47.79941 C 136.33925,234.05021 70.624183,320.27576 31.189394,416.80878 21.278748,431.11637 28.364097,463.50296 10.667,469.333 Z" />
      <path
         id="path1814"
         d="M 436.67969,-18.044922 C 333.52842,-16.076856 227.57743,-5.5229783 132.5542,37.373713 68.62739,66.861646 9.5415333,117.43557 -9.7835055,187.44899 -32.012969,257.31062 -11.442493,342.59434 50.818015,385.19415 c 57.419035,39.87367 135.267345,49.86729 200.883775,25.76055 64.94124,-25.16415 100.74748,-91.81068 117.52828,-155.86457 10.6843,-44.11571 18.88914,-89.46444 40.30075,-130.05827 17.08966,-34.985541 40.89848,-66.395617 69.00938,-93.061619 14.36023,-15.365955 7.54665,-40.1642619 -10.11247,-49.679225 -10.58112,-0.218717 -21.16438,-0.373648 -31.74804,-0.335938 z m -45.32422,61.78125 C 355.01322,92.497425 332.52299,150.01532 320.61757,209.36628 308.13753,262.47971 291.39303,322.9579 240.82005,352.24477 188.24472,376.58765 121.22522,367.74637 76.295508,331.17341 25.038054,285.18657 30.074413,199.14595 73.642246,149.65443 118.68469,96.718611 188.207,75.06151 253.52372,59.360087 299.32548,49.248752 346.10201,44.28185 392.88281,41.652344 Z" />
      <path
         id="path1816"
         d="M 284.09375,88.246094 C 209.90899,119.65112 148.59105,175.24004 96.312274,235.45919 46.271534,295.49357 3.7639215,363.88556 -17.143814,439.64328 c -8.372255,24.15287 15.7033792,59.59175 42.151121,44.06645 22.219227,-19.16191 15.018855,-57.64051 32.546753,-82.31299 47.5543,-100.50447 122.81473,-190.2364 220.13927,-245.4776 21.39327,-7.69786 51.77112,-32.02175 32.32474,-55.87445 -6.37812,-6.490993 -16.52489,-13.10983 -25.92432,-11.798596 z" />
      <g
         id="g1818" />
      <g
         id="g1820" />
      <g
         id="g1822" />
      <g
         id="g1824" />
      <g
         id="g1826" />
      <g
         id="g1828" />
      <g
         id="g1830" />
      <g
         id="g1832" />
      <g
         id="g1834" />
      <g
         id="g1836" />
      <g
         id="g1838" />
      <g
         id="g1840" />
      <g
         id="g1842" />
      <g
         id="g1844" />
      <g
         id="g1846" />
    </g>
  </g>
</svg>
